<?xml version="1.0" encoding="utf-8"?>
<!-- Generator: Adobe Illustrator 24.0.0, SVG Export Plug-In . SVG Version: 6.00 Build 0)  -->
<svg version="1.1" id="Layer_1" xmlns="http://www.w3.org/2000/svg" xmlns:xlink="http://www.w3.org/1999/xlink" x="0px" y="0px"
	 viewBox="0 0 512 512" style="enable-background:new 0 0 512 512;" xml:space="preserve">
<style type="text/css">
	.st0{fill-rule:evenodd;clip-rule:evenodd;}
</style>
<path class="st0" d="M99.7,3c2.6,0,7.7,2.6,10.2,5.1c17.9,10.2,61.5,66.6,76.8,94.8c7.7,15.4,10.2,28.2,7.7,38.4
	c-2.6,7.7-7.7,12.8-28.2,30.7c-7.7,5.1-15.4,12.8-15.4,15.4c-2.6,2.6-5.1,12.8-5.1,17.9c0,15.4,10.2,38.4,20.5,58.9
	c10.2,15.4,25.6,35.9,43.5,48.7c20.5,17.9,35.9,30.7,56.3,38.4c25.6,12.8,41,15.4,51.2,10.2c2.6,0,5.1-2.6,7.7-2.6
	c0,0,7.7-7.7,15.4-17.9c12.8-17.9,17.9-20.5,25.6-23c12.8-5.1,23-2.6,35.9,2.6c10.2,5.1,30.7,17.9,43.5,25.6
	c17.9,12.8,53.8,41,58.9,48.7c7.7,10.2,10.2,25.6,5.1,41s-30.7,46.1-48.7,58.9c-15.4,12.8-25.6,15.4-41,17.9
	c-12.8,0-17.9,0-30.7-7.7C271.3,456.3,176.5,382,99.7,282.1c-38.4-51.2-69.1-107.6-89.6-163.9c-12.8-33.3-12.8-46.1-2.6-64
	c5.1-7.7,23-25.6,35.9-33.3C61.3,8.1,71.5,0.4,79.2,0.4C84.3-2.1,94.6,0.4,99.7,3L99.7,3z"/>
</svg>
