<?xml version="1.0" encoding="utf-8"?>
<!-- Generator: Adobe Illustrator 25.0.0, SVG Export Plug-In . SVG Version: 6.00 Build 0)  -->
<svg version="1.1" id="Layer_1" xmlns="http://www.w3.org/2000/svg" xmlns:xlink="http://www.w3.org/1999/xlink" x="0px" y="0px"
	 viewBox="0 0 28 28" style="enable-background:new 0 0 28 28;" xml:space="preserve">
<path d="M23.9,4.1C21.3,1.5,17.7,0,14,0S6.7,1.5,4.1,4.1S0,10.3,0,14s1.5,7.3,4.1,9.9S10.3,28,14,28s7.3-1.5,9.9-4.1S28,17.7,28,14
	S26.5,6.7,23.9,4.1z M22.8,22.8c-2.3,2.3-5.5,3.6-8.8,3.6s-6.4-1.3-8.8-3.6c-4.8-4.8-4.8-12.7,0-17.5c2.3-2.3,5.5-3.6,8.8-3.6
	s6.4,1.3,8.8,3.6C27.6,10.1,27.6,17.9,22.8,22.8z"/>
<path d="M20.2,7.8c-0.3-0.3-0.8-0.3-1.1,0l-5,5l-5-5c-0.3-0.3-0.8-0.3-1.1,0C7.5,8.1,7.5,8.6,7.8,9l5,5l-5,5c-0.3,0.3-0.3,0.8,0,1.1
	c0.2,0.2,0.4,0.2,0.6,0.2c0.2,0,0.4-0.1,0.6-0.2l5-5l5,5c0.2,0.2,0.4,0.2,0.6,0.2c0.2,0,0.4-0.1,0.6-0.2c0.3-0.3,0.3-0.8,0-1.1l-5-5
	l5-5C20.5,8.6,20.5,8.1,20.2,7.8z"/>
</svg>
